<svg width="343" height="210" viewBox="0 0 343 210" fill="none" xmlns="http://www.w3.org/2000/svg">
<path d="M124.084 -162.167C195.689 -181.354 270.476 -171.544 334.667 -134.483C398.843 -97.4756 444.771 -37.6801 463.944 33.8723C483.116 105.425 473.239 180.173 436.164 244.311C399.09 308.449 339.241 354.391 267.636 373.577C196.031 392.764 121.268 382.834 57.0388 345.841C-7.13791 308.833 -53.0656 249.038 -72.238 177.485C-91.4105 105.933 -81.5337 31.1845 -44.4589 -32.9535C-7.33133 -97.1057 52.4784 -142.981 124.084 -162.167ZM267.055 371.411C338.079 352.38 397.47 306.844 434.274 243.175C471.078 179.506 480.832 105.357 461.816 34.3859C442.799 -36.5852 397.224 -95.909 333.569 -132.66C269.862 -169.397 195.66 -179.137 124.636 -160.106C53.6119 -141.075 -5.77882 -95.5393 -42.5828 -31.8704C-79.3867 31.7986 -89.1409 105.948 -70.1242 176.919C-51.1076 247.89 -5.53281 307.214 58.122 343.965C121.83 380.702 196.032 390.442 267.055 371.411Z" fill="url(#paint0_linear_367_116148)"/>
<path d="M125.882 -155.456C195.69 -174.161 268.602 -164.585 331.171 -128.506C393.739 -92.4263 438.527 -34.1378 457.218 35.6179C475.909 105.374 466.319 178.233 430.12 240.777C393.988 303.359 335.632 348.108 265.823 366.813C196.015 385.518 123.103 375.943 60.5345 339.863C-2.03404 303.784 -46.8216 245.495 -65.5126 175.74C-84.2036 105.984 -74.6135 33.1251 -38.4144 -29.4189C-2.28227 -92.0016 56.0733 -136.751 125.882 -155.456ZM265.271 364.752C334.551 346.189 392.435 301.793 428.258 239.746C464.133 177.685 473.653 105.411 455.104 36.1843C436.555 -33.0429 392.173 -90.8739 330.073 -126.682C268.041 -162.452 195.714 -171.958 126.434 -153.395C57.154 -134.831 -0.729757 -90.4352 -36.5524 -28.3886C-72.4279 33.6722 -81.9482 105.946 -63.3988 175.173C-44.8494 244.401 -0.467626 302.232 61.6319 338.04C123.731 373.848 196.044 383.302 265.271 364.752Z" fill="url(#paint1_linear_367_116148)"/>
<path d="M127.666 -148.797C195.678 -167.021 266.715 -157.679 327.675 -122.528C388.636 -87.3774 432.245 -30.5287 450.454 37.4302C468.664 105.389 459.308 176.373 424.104 237.348C388.886 298.269 332.037 341.878 264.026 360.102C196.014 378.326 124.977 368.984 64.0167 333.833C3.05626 298.682 -40.5526 241.833 -58.7621 173.874C-76.9717 105.915 -67.6155 34.9315 -32.4118 -26.0431C2.80603 -86.9648 59.6547 -130.574 127.666 -148.797ZM263.473 358.041C330.957 339.959 387.334 296.703 422.281 236.25C457.228 175.798 466.514 105.399 448.446 37.9683C430.378 -29.4622 387.136 -85.7861 326.645 -120.666C266.154 -155.546 195.702 -164.819 128.219 -146.736C60.7353 -128.654 4.35851 -85.3984 -30.5885 -24.9457C-65.5356 35.507 -74.822 105.906 -56.754 173.336C-38.6861 240.767 4.55561 297.091 65.047 331.971C125.538 366.851 196.043 376.109 263.473 358.041Z" fill="url(#paint2_linear_367_116148)"/>
<path d="M129.464 -142.087C195.679 -159.829 264.894 -150.735 324.246 -116.512C383.612 -82.2372 426.067 -26.9484 443.795 39.2138C461.523 105.376 452.415 174.538 418.126 233.851C383.85 293.218 328.494 335.634 262.227 353.39C195.959 371.147 126.797 362.038 67.4447 327.816C8.09244 293.594 -34.3763 238.252 -52.1044 172.09C-69.8325 105.928 -60.7244 36.7659 -26.435 -22.5477C7.90728 -81.8755 63.2489 -124.344 129.464 -142.087ZM261.674 351.329C327.361 333.728 382.231 291.613 416.249 232.768C450.268 173.924 459.321 105.4 441.734 39.7661C424.147 -25.8677 382.046 -80.6847 323.163 -114.636C264.279 -148.588 195.703 -157.626 130.016 -140.026C64.3296 -122.425 9.45977 -80.3091 -24.5588 -21.4645C-58.5246 37.3659 -67.5771 105.89 -49.9906 171.523C-32.4041 237.157 9.6975 291.974 68.5279 325.94C127.411 359.891 196.041 368.916 261.674 351.329Z" fill="url(#paint3_linear_367_116148)"/>
<path d="M131.263 -135.375C195.681 -152.636 263.007 -143.829 320.765 -110.482C378.523 -77.1352 419.838 -23.3534 437.084 41.0121C454.331 105.378 445.457 172.664 412.096 230.37C378.749 288.128 324.847 329.418 260.429 346.679C196.011 363.94 128.739 355.118 70.9273 321.785C13.169 288.439 -28.1455 234.657 -45.3922 170.291C-62.6389 105.926 -53.7645 38.6394 -20.4036 -19.0661C12.996 -76.8386 66.8448 -118.114 131.263 -135.375ZM259.877 344.618C323.767 327.498 377.144 286.576 410.234 229.339C443.324 172.103 452.129 105.401 435.024 41.5643C417.918 -22.2727 376.957 -75.5827 319.668 -108.659C262.392 -141.682 195.705 -150.434 131.815 -133.314C67.9255 -116.195 14.5485 -75.2722 -18.5416 -18.0357C-51.6318 39.2007 -60.4363 105.902 -43.3312 169.739C-26.2261 233.576 14.7495 286.939 72.0247 319.962C129.3 352.985 195.987 361.737 259.877 344.618Z" fill="url(#paint4_linear_367_116148)"/>
<path d="M133.061 -128.664C195.683 -145.443 261.133 -136.87 317.283 -104.451C373.433 -72.033 413.608 -19.7581 430.387 42.8635C447.167 105.485 438.512 170.844 406.094 226.994C373.675 283.144 321.281 323.294 258.659 340.073C196.037 356.853 130.587 348.279 74.4372 315.861C18.287 283.443 -21.8874 231.168 -38.6668 168.546C-55.4462 105.925 -46.7916 40.566 -14.3733 -15.5842C18.0451 -71.7344 70.4398 -111.884 133.061 -128.664ZM258.079 337.907C320.172 321.269 372.094 281.472 404.203 225.858C436.365 170.229 444.883 105.417 428.259 43.377C411.636 -18.6633 371.8 -70.5191 316.186 -102.628C260.572 -134.737 195.654 -143.226 133.614 -126.603C71.5733 -109.979 19.5975 -70.168 -12.5113 -14.5538C-44.673 41.0745 -53.1908 105.887 -36.5671 167.927C-19.9435 229.967 19.8392 281.837 75.5062 313.932C131.173 346.027 195.985 354.544 258.079 337.907Z" fill="url(#paint5_linear_367_116148)"/>
<path d="M134.846 -122.005C195.723 -138.317 259.245 -129.963 313.84 -98.4878C368.383 -66.9979 407.431 -16.1771 423.715 44.5948C439.999 105.367 431.645 168.889 400.102 223.445C368.612 277.987 317.725 316.997 256.847 333.309C195.969 349.621 132.447 341.268 77.905 309.778C23.3629 278.288 -15.6714 227.52 -31.9694 166.695C-48.2673 105.87 -39.8466 42.3868 -8.35674 -12.1553C23.1473 -66.6445 74.0209 -105.707 134.846 -122.005ZM256.295 331.248C316.591 315.092 367.007 276.435 398.24 222.415C429.459 168.342 437.743 105.405 421.601 45.1612C405.459 -15.0823 366.816 -65.4454 312.757 -96.6116C258.698 -127.778 195.708 -136.048 135.412 -119.891C75.1157 -103.735 24.6998 -65.0781 -6.53343 -11.0579C-37.7667 42.9623 -46.0506 105.899 -29.9084 166.143C-13.7662 226.386 24.9293 276.735 78.9882 307.902C133.008 339.135 195.998 347.405 256.295 331.248Z" fill="url(#paint6_linear_367_116148)"/>
<path d="M136.643 -115.294C258.557 -147.961 384.311 -75.4009 416.95 46.4072C449.588 168.215 376.961 293.931 255.048 326.598C133.134 359.265 7.3794 286.705 -25.259 164.897C-57.8974 43.0885 14.7291 -82.6271 136.643 -115.294ZM254.495 324.537C375.299 292.167 447.23 167.658 414.889 46.9595C382.548 -73.739 257.999 -145.602 137.195 -113.233C16.3911 -80.8635 -55.5391 43.6461 -23.1981 164.344C9.14299 285.043 133.744 356.892 254.495 324.537Z" fill="url(#paint7_linear_367_116148)"/>
<path d="M138.442 -108.582C256.656 -140.258 378.591 -69.9035 410.239 48.2055C441.886 166.315 371.464 288.211 253.25 319.886C135.035 351.562 13.0999 281.207 -18.5473 163.098C-50.1946 44.9894 20.227 -76.9069 138.442 -108.582ZM252.697 317.825C369.802 286.447 439.528 165.757 408.178 48.7577C376.828 -68.2415 256.046 -137.886 138.994 -106.522C21.9418 -75.1575 -47.8362 45.5469 -16.4864 162.546C14.8635 279.545 135.645 349.189 252.697 317.825Z" fill="url(#paint8_linear_367_116148)"/>
<path d="M140.24 -101.871C254.756 -132.556 372.924 -64.4202 403.58 49.9896C434.236 164.399 366.02 282.476 251.452 313.175C136.936 343.859 18.7675 275.724 -11.8886 161.314C-42.5446 46.9044 25.7247 -71.1868 140.24 -101.871ZM250.899 311.114C364.305 280.727 431.878 163.842 401.519 50.5418C371.161 -62.7583 254.198 -130.197 140.845 -99.8244C27.4395 -69.4374 -40.0806 47.4336 -9.72195 160.734C20.6367 274.034 137.546 341.487 250.899 311.114Z" fill="url(#paint9_linear_367_116148)"/>
<path d="M142.039 -95.1595C252.855 -124.853 367.205 -58.9225 396.884 51.8411C426.563 162.605 360.537 276.81 249.668 306.517C138.799 336.224 24.5022 270.28 -5.17686 159.516C-34.8559 48.7527 31.2225 -65.4664 142.039 -95.1595ZM249.101 304.403C358.808 275.007 424.123 161.956 394.756 52.3546C365.388 -57.2463 252.245 -122.48 142.591 -93.0986C32.9373 -63.7169 -32.4305 49.3489 -3.06305 158.95C26.3044 268.551 139.448 333.785 249.101 304.403Z" fill="url(#paint10_linear_367_116148)"/>
<path d="M143.822 -88.5015C250.94 -117.204 361.47 -53.4784 390.157 53.586C418.845 160.65 355.039 271.089 247.869 299.805C140.752 328.507 30.2217 264.782 1.53384 157.717C-27.154 50.653 36.7052 -59.7996 143.822 -88.5015ZM247.317 297.744C353.324 269.339 416.487 160.093 388.111 54.191C359.734 -51.7107 250.41 -114.74 144.403 -86.3349C38.3955 -57.9303 -24.7673 51.3162 3.60897 157.218C31.9853 263.12 141.362 326.134 247.317 297.744Z" fill="url(#paint11_linear_367_116148)"/>
<path d="M145.621 -81.7903C249.039 -109.501 355.749 -47.9809 383.446 55.3843C411.143 158.749 349.541 265.369 246.07 293.094C142.652 320.804 35.9417 259.284 8.24503 155.919C-19.4516 52.5539 42.2025 -54.0795 145.621 -81.7903ZM245.518 291.033C347.827 263.619 408.77 158.139 381.385 55.9365C354 -46.2661 248.481 -107.143 146.173 -79.7293C43.8645 -52.3158 -17.0791 53.1642 10.306 155.367C37.6911 257.569 143.263 318.432 245.518 291.033Z" fill="url(#paint12_linear_367_116148)"/>
<path d="M147.419 -75.0785C247.138 -101.798 350.03 -42.483 376.735 57.183C403.44 156.849 343.991 259.663 244.273 286.383C144.554 313.102 41.6622 253.787 14.9568 154.121C-11.7487 54.4552 47.7004 -48.3589 147.419 -75.0785ZM243.72 284.322C342.329 257.899 401.068 156.239 374.674 57.7352C348.28 -40.7682 246.581 -99.4398 147.971 -73.0175C49.3623 -46.5953 -9.37617 55.0655 17.0178 153.569C43.4117 252.072 145.164 310.73 243.72 284.322Z" fill="url(#paint13_linear_367_116148)"/>
<path d="M149.218 -68.3673C245.238 -94.0957 344.31 -36.9857 370.024 58.9811C395.738 154.948 338.561 253.981 242.489 279.724C146.416 305.467 47.3969 248.342 21.6826 152.376C-4.03164 56.4087 53.1982 -42.6388 149.218 -68.3673ZM241.922 277.61C336.832 252.179 393.366 154.338 367.963 59.5334C342.56 -35.2709 244.68 -91.7374 149.77 -66.3063C54.8601 -40.8753 -1.67337 56.9663 23.7294 151.771C49.1321 246.575 147.065 303.027 241.922 277.61Z" fill="url(#paint14_linear_367_116148)"/>
<path d="M151.016 -61.6556C243.389 -86.4069 338.603 -31.435 363.326 60.8327C388.049 153.1 333.063 248.262 240.69 273.013C148.316 297.765 53.1022 242.793 28.3792 150.525C3.65609 58.2572 58.695 -36.9183 151.016 -61.6556ZM240.123 270.899C331.334 246.459 385.663 152.437 361.251 61.3321C336.84 -29.773 242.779 -84.0345 151.568 -59.5946C60.357 -35.1547 6.02856 58.8676 30.4401 149.973C54.8517 241.078 148.965 295.325 240.123 270.899Z" fill="url(#paint15_linear_367_116148)"/>
<path d="M152.8 -54.9976C241.474 -78.7578 332.869 -25.9909 356.601 62.5776C380.332 151.146 327.513 242.555 238.891 266.301C150.27 290.047 58.8223 237.295 35.0904 148.726C11.3585 60.1575 64.1782 -31.2515 152.8 -54.9976ZM238.339 264.24C325.851 240.792 377.974 150.589 354.54 63.1299C331.105 -24.3289 240.878 -76.3324 153.366 -52.8838C65.8543 -29.4351 13.731 60.7678 37.1655 148.227C60.6001 235.685 150.828 287.689 238.339 264.24Z" fill="url(#paint16_linear_367_116148)"/>
<path d="M154.598 -48.2862C239.573 -71.0552 327.149 -20.4935 349.89 64.3759C372.63 149.245 322.016 236.835 237.093 259.59C152.118 282.359 64.5428 231.797 41.8021 146.928C19.0614 62.0584 69.676 -25.5314 154.598 -48.2862ZM236.541 257.529C320.354 235.071 370.272 148.688 347.829 64.9281C325.385 -18.8315 238.963 -68.6828 155.15 -46.2253C71.338 -23.7678 21.4197 62.6159 43.8631 146.376C66.3064 230.135 152.729 279.986 236.541 257.529Z" fill="url(#paint17_linear_367_116148)"/>
<path d="M156.397 -41.575C237.672 -63.3528 321.482 -15.0102 343.231 66.16C364.981 147.33 316.571 231.101 235.295 252.878C154.019 274.656 70.2101 226.314 48.4606 145.144C26.7111 63.9733 75.1735 -19.8113 156.397 -41.575ZM234.743 250.818C314.856 229.351 362.569 146.787 341.117 66.7264C319.665 -13.3341 237.062 -60.9803 156.949 -39.514C76.8355 -18.0477 29.1223 64.5167 50.5744 144.577C72.0266 224.638 154.63 272.284 234.743 250.818Z" fill="url(#paint18_linear_367_116148)"/>
<path d="M158.194 -34.8633C235.771 -55.65 315.761 -9.51246 336.519 67.9586C357.277 145.43 311.087 225.434 233.51 246.22C155.934 267.007 75.9438 220.869 55.1855 143.398C34.4272 65.9273 80.6703 -14.0908 158.194 -34.8633ZM232.944 244.107C309.358 223.631 354.866 144.886 334.405 68.525C313.944 -7.83631 235.161 -53.2775 158.746 -32.8023C82.3323 -12.3272 36.8242 66.4179 57.2851 142.779C77.7461 219.14 156.53 264.582 232.944 244.107Z" fill="url(#paint19_linear_367_116148)"/>
<path d="M159.993 -28.152C233.871 -47.9474 310.041 -4.01501 329.808 69.7569C349.575 143.529 305.59 219.714 231.712 239.509C157.835 259.304 81.6643 215.372 61.883 141.547C42.1017 67.7225 86.1682 -8.37069 159.993 -28.152ZM231.16 237.448C303.875 217.964 347.164 142.985 327.709 70.3761C308.239 -2.28603 233.274 -45.5221 160.559 -26.0382C87.8443 -6.55423 44.5554 68.4244 64.011 141.034C83.4666 213.643 158.445 256.932 231.16 237.448Z" fill="url(#paint20_linear_367_116148)"/>
<path d="M161.777 -21.4931C231.956 -40.2973 304.307 1.43004 323.097 71.5556C341.887 141.681 300.093 213.994 229.915 232.798C159.736 251.602 87.3848 209.875 68.5947 139.749C49.8716 69.6625 91.6518 -2.70298 161.777 -21.4931ZM229.362 230.737C298.378 212.244 339.515 141.071 321.036 72.1079C302.558 3.14487 231.36 -37.872 162.344 -19.3793C93.328 -0.886525 52.23 70.22 70.7085 139.183C89.1871 208.146 160.346 249.23 229.362 230.737Z" fill="url(#paint21_linear_367_116148)"/>
<path d="M163.576 -14.782C230.055 -32.5951 298.587 6.92721 316.386 73.3536C334.185 139.78 294.595 208.273 228.116 226.086C161.637 243.899 93.1049 204.377 75.306 137.951C57.5071 71.5244 97.1492 3.01688 163.576 -14.782ZM227.564 224.025C292.881 206.524 331.812 139.17 314.325 73.9059C296.837 8.64203 229.444 -30.2226 164.128 -12.7211C98.8112 4.7805 59.8795 72.1347 77.3669 137.399C94.9072 202.648 162.247 241.527 227.564 224.025Z" fill="url(#paint22_linear_367_116148)"/>
<path d="M165.374 -8.07096C228.154 -24.8928 292.866 12.4244 309.674 75.1516C326.482 137.879 289.098 202.553 226.317 219.375C163.537 236.197 98.8246 198.879 82.0169 136.152C65.2092 73.425 102.646 8.73676 165.374 -8.07096ZM225.765 217.314C287.383 200.803 324.109 137.269 307.613 75.7039C291.117 14.1392 227.543 -22.5203 165.926 -6.00998C104.308 10.5004 67.5817 74.0353 84.0779 135.6C100.574 197.165 164.148 233.824 225.765 217.314Z" fill="url(#paint23_linear_367_116148)"/>
<path d="M167.172 -1.35967C226.253 -17.1904 287.147 17.9218 302.963 76.9499C318.78 135.978 283.6 196.833 224.52 212.663C165.439 228.494 104.531 193.329 88.7286 134.354C72.9263 75.3786 108.144 14.4569 167.172 -1.35967ZM223.967 210.602C281.886 195.083 316.407 135.368 300.902 77.5021C285.397 19.6366 225.643 -14.8179 167.724 0.701278C109.806 16.2205 75.2846 75.9361 90.7896 133.802C106.295 191.667 166.049 226.122 223.967 210.602Z" fill="url(#paint24_linear_367_116148)"/>
<path d="M168.97 5.35215C224.352 -9.48736 281.44 23.4726 296.266 78.8015C311.091 134.13 278.131 191.219 222.749 206.058C167.368 220.898 110.279 187.938 95.454 132.609C80.6286 77.2799 113.641 20.1775 168.97 5.35215ZM222.183 203.944C276.402 189.416 308.719 133.52 294.205 79.3537C279.691 25.1874 223.756 -7.06203 169.537 7.46596C115.318 21.9939 83.0011 77.8903 97.515 132.057C112.029 186.223 167.964 218.472 222.183 203.944Z" fill="url(#paint25_linear_367_116148)"/>
<path d="M170.754 12.01C222.437 -1.83832 275.706 28.9166 289.54 80.5463C303.374 132.176 272.567 185.459 220.937 199.293C169.307 213.128 115.985 182.387 102.151 130.757C88.3169 79.1273 119.125 25.8442 170.754 12.01ZM220.385 197.232C270.905 183.696 301.016 131.619 287.479 81.0985C273.957 30.6314 221.827 0.534172 171.307 14.071C120.787 27.6078 90.6752 79.6848 104.212 130.205C117.749 180.725 169.865 210.769 220.385 197.232Z" fill="url(#paint26_linear_367_116148)"/>
<path d="M172.552 18.7213C220.536 5.86416 269.985 34.414 282.828 82.3446C295.671 130.275 267.069 179.739 219.138 192.582C171.155 205.439 121.705 176.889 108.862 128.959C96.0191 81.0281 124.622 31.5643 172.552 18.7213ZM218.586 190.521C265.407 177.975 293.313 129.718 280.767 82.8968C268.222 36.0759 219.925 8.23662 173.105 20.7822C126.284 33.3278 98.3774 81.5856 110.923 128.406C123.469 175.227 171.765 203.067 218.586 190.521Z" fill="url(#paint27_linear_367_116148)"/>
<path d="M174.351 25.4333C218.635 13.5674 264.318 39.898 276.17 84.1294C288.022 128.361 261.624 174.005 217.34 185.871C173.056 197.737 127.373 171.407 115.521 127.175C103.669 82.9439 130.119 37.2851 174.351 25.4333ZM216.788 183.81C259.91 172.256 285.611 127.817 274.056 84.6958C262.502 41.5741 218.025 15.9398 174.903 27.4943C131.781 39.0487 106.08 83.4872 117.635 126.609C129.189 169.731 173.666 195.365 216.788 183.81Z" fill="url(#paint28_linear_367_116148)"/>
<path d="M176.149 32.1446C216.735 21.2699 258.599 45.3954 269.459 85.9276C280.32 126.46 256.127 168.285 215.542 179.16C174.957 190.035 133.093 165.909 122.232 125.377C111.372 84.8447 135.564 43.0194 176.149 32.1446ZM214.99 177.099C254.412 166.536 277.894 125.864 267.345 86.494C256.782 47.0715 216.124 23.6423 176.702 34.2056C137.279 44.7688 113.797 85.4409 124.346 124.811C134.909 164.233 175.567 187.662 214.99 177.099Z" fill="url(#paint29_linear_367_116148)"/>
<path d="M177.934 38.8032C214.82 28.9196 252.864 50.8401 262.748 87.726C272.632 124.612 250.644 162.618 213.758 172.502C176.872 182.385 138.828 160.465 128.944 123.579C119.06 86.6928 141.048 48.6868 177.934 38.8032ZM213.206 170.441C248.929 160.869 270.206 124.016 260.648 88.3452C251.076 52.6219 214.238 31.3978 178.514 40.9698C142.791 50.5419 121.514 87.3946 131.072 123.065C140.63 158.736 177.483 180.013 213.206 170.441Z" fill="url(#paint30_linear_367_116148)"/>
<path d="M179.732 45.5143C212.918 36.6219 247.144 56.3373 256.036 89.524C264.929 122.711 245.146 156.898 211.959 165.79C178.773 174.682 144.6 154.953 135.708 121.766C126.815 88.5792 146.545 54.4066 179.732 45.5143ZM211.407 163.729C243.431 155.148 262.556 122.1 253.975 90.0763C245.394 58.0521 212.361 38.9802 180.284 47.5752C148.26 56.1561 129.135 89.2037 137.716 121.228C146.35 153.238 179.383 172.31 211.407 163.729Z" fill="url(#paint31_linear_367_116148)"/>
<path d="M181.53 52.2255C211.017 44.3243 241.438 61.8875 249.325 91.3223C257.226 120.81 239.648 151.177 210.161 159.079C180.673 166.98 150.253 149.417 142.366 119.982C134.479 90.547 152.042 60.1267 181.53 52.2255ZM209.609 157.018C237.934 149.428 254.853 120.2 247.264 91.8745C239.674 63.5495 210.46 46.6827 182.082 54.2865C153.757 61.8762 136.837 91.1045 144.427 119.43C152.017 147.755 181.284 164.607 209.609 157.018Z" fill="url(#paint32_linear_367_116148)"/>
<path d="M183.329 58.9366C209.117 52.0266 235.718 67.3847 242.614 93.1203C249.51 118.856 234.152 145.457 208.363 152.367C182.575 159.277 155.974 143.919 149.078 118.183C142.182 92.4476 157.54 65.8466 183.329 58.9366ZM207.811 150.306C232.437 143.707 247.151 118.298 240.553 93.6725C233.954 69.0467 208.559 54.3849 183.881 60.9976C159.255 67.5961 144.54 93.0051 151.139 117.631C157.79 142.243 183.185 156.904 207.811 150.306Z" fill="url(#paint33_linear_367_116148)"/>
<path d="M185.127 65.6479C207.216 59.7291 229.998 72.8821 235.917 94.9714C241.835 117.061 228.682 139.842 206.593 145.761C184.504 151.68 161.722 138.527 155.803 116.438C149.884 94.3484 163.037 71.5667 185.127 65.6479ZM206.012 143.595C226.939 137.987 239.449 116.398 233.841 95.4708C228.234 74.5441 206.658 62.0874 185.679 67.7089C164.752 73.3162 152.243 94.906 157.85 115.833C163.51 136.745 185.086 149.202 206.012 143.595Z" fill="url(#paint34_linear_367_116148)"/>
<path d="M186.911 72.3065C205.301 67.3788 224.263 78.3268 229.191 96.7169C234.119 115.107 223.171 134.069 204.78 138.997C186.39 143.925 167.428 132.977 162.5 114.587C157.573 96.1965 168.521 77.2341 186.911 72.3065ZM204.228 136.936C221.456 132.32 231.76 114.55 227.144 97.322C222.528 80.0945 204.719 69.857 187.491 74.4731C170.264 79.0892 159.959 96.8597 164.575 114.087C169.191 131.315 187.001 141.552 204.228 136.936Z" fill="url(#paint35_linear_367_116148)"/>
<path d="M188.709 79.0183C203.4 75.0818 218.543 83.8247 222.48 98.5157C226.416 113.207 217.673 128.35 202.982 132.286C188.292 136.223 173.148 127.48 169.212 112.789C165.276 98.0978 174.018 82.9547 188.709 79.0183ZM202.43 130.225C215.959 126.6 224.058 112.649 220.419 99.0679C216.794 85.5396 202.79 77.4543 189.262 81.0792C175.733 84.7042 167.634 98.6554 171.273 112.237C174.898 125.765 188.902 133.85 202.43 130.225Z" fill="url(#paint36_linear_367_116148)"/>
<defs>
<linearGradient id="paint0_linear_367_116148" x1="-0.355066" y1="-90.5014" x2="392.064" y2="301.974" gradientUnits="userSpaceOnUse">
<stop stop-color="white" stop-opacity="0"/>
<stop offset="1" stop-color="white"/>
</linearGradient>
<linearGradient id="paint1_linear_367_116148" x1="4.55727" y1="-85.5884" x2="387.098" y2="297.047" gradientUnits="userSpaceOnUse">
<stop stop-color="white" stop-opacity="0"/>
<stop offset="1" stop-color="white"/>
</linearGradient>
<linearGradient id="paint2_linear_367_116148" x1="9.4843" y1="-80.7284" x2="382.252" y2="292.039" gradientUnits="userSpaceOnUse">
<stop stop-color="white" stop-opacity="0"/>
<stop offset="1" stop-color="white"/>
</linearGradient>
<linearGradient id="paint3_linear_367_116148" x1="14.3705" y1="-75.8053" x2="377.29" y2="287.187" gradientUnits="userSpaceOnUse">
<stop stop-color="white" stop-opacity="0"/>
<stop offset="1" stop-color="white"/>
</linearGradient>
<linearGradient id="paint4_linear_367_116148" x1="19.2847" y1="-70.8888" x2="372.371" y2="282.275" gradientUnits="userSpaceOnUse">
<stop stop-color="white" stop-opacity="0"/>
<stop offset="1" stop-color="white"/>
</linearGradient>
<linearGradient id="paint5_linear_367_116148" x1="24.1999" y1="-65.965" x2="367.545" y2="277.396" gradientUnits="userSpaceOnUse">
<stop stop-color="white" stop-opacity="0"/>
<stop offset="1" stop-color="white"/>
</linearGradient>
<linearGradient id="paint6_linear_367_116148" x1="29.1126" y1="-61.1047" x2="362.617" y2="272.455" gradientUnits="userSpaceOnUse">
<stop stop-color="white" stop-opacity="0"/>
<stop offset="1" stop-color="white"/>
</linearGradient>
<linearGradient id="paint7_linear_367_116148" x1="34.0117" y1="-56.1848" x2="357.69" y2="267.52" gradientUnits="userSpaceOnUse">
<stop stop-color="white" stop-opacity="0"/>
<stop offset="1" stop-color="white"/>
</linearGradient>
<linearGradient id="paint8_linear_367_116148" x1="38.9254" y1="-51.2682" x2="352.771" y2="262.609" gradientUnits="userSpaceOnUse">
<stop stop-color="white" stop-opacity="0"/>
<stop offset="1" stop-color="white"/>
</linearGradient>
<linearGradient id="paint9_linear_367_116148" x1="43.8126" y1="-46.3447" x2="347.811" y2="257.757" gradientUnits="userSpaceOnUse">
<stop stop-color="white" stop-opacity="0"/>
<stop offset="1" stop-color="white"/>
</linearGradient>
<linearGradient id="paint10_linear_367_116148" x1="48.7273" y1="-41.4244" x2="342.938" y2="252.862" gradientUnits="userSpaceOnUse">
<stop stop-color="white" stop-opacity="0"/>
<stop offset="1" stop-color="white"/>
</linearGradient>
<linearGradient id="paint11_linear_367_116148" x1="53.6269" y1="-36.5577" x2="338.05" y2="247.913" gradientUnits="userSpaceOnUse">
<stop stop-color="white" stop-opacity="0"/>
<stop offset="1" stop-color="white"/>
</linearGradient>
<linearGradient id="paint12_linear_367_116148" x1="58.5401" y1="-31.6412" x2="333.13" y2="243.002" gradientUnits="userSpaceOnUse">
<stop stop-color="white" stop-opacity="0"/>
<stop offset="1" stop-color="white"/>
</linearGradient>
<linearGradient id="paint13_linear_367_116148" x1="63.4538" y1="-26.7243" x2="328.211" y2="238.091" gradientUnits="userSpaceOnUse">
<stop stop-color="white" stop-opacity="0"/>
<stop offset="1" stop-color="white"/>
</linearGradient>
<linearGradient id="paint14_linear_367_116148" x1="68.3685" y1="-21.8043" x2="323.338" y2="233.195" gradientUnits="userSpaceOnUse">
<stop stop-color="white" stop-opacity="0"/>
<stop offset="1" stop-color="white"/>
</linearGradient>
<linearGradient id="paint15_linear_367_116148" x1="73.2812" y1="-16.8874" x2="318.418" y2="228.284" gradientUnits="userSpaceOnUse">
<stop stop-color="white" stop-opacity="0"/>
<stop offset="1" stop-color="white"/>
</linearGradient>
<linearGradient id="paint16_linear_367_116148" x1="78.1813" y1="-12.0207" x2="313.53" y2="223.335" gradientUnits="userSpaceOnUse">
<stop stop-color="white" stop-opacity="0"/>
<stop offset="1" stop-color="white"/>
</linearGradient>
<linearGradient id="paint17_linear_367_116148" x1="83.095" y1="-7.10424" x2="308.611" y2="218.424" gradientUnits="userSpaceOnUse">
<stop stop-color="white" stop-opacity="0"/>
<stop offset="1" stop-color="white"/>
</linearGradient>
<linearGradient id="paint18_linear_367_116148" x1="87.982" y1="-2.18072" x2="303.65" y2="213.572" gradientUnits="userSpaceOnUse">
<stop stop-color="white" stop-opacity="0"/>
<stop offset="1" stop-color="white"/>
</linearGradient>
<linearGradient id="paint19_linear_367_116148" x1="92.8957" y1="2.73965" x2="298.777" y2="208.677" gradientUnits="userSpaceOnUse">
<stop stop-color="white" stop-opacity="0"/>
<stop offset="1" stop-color="white"/>
</linearGradient>
<linearGradient id="paint20_linear_367_116148" x1="97.8094" y1="7.65615" x2="293.857" y2="203.766" gradientUnits="userSpaceOnUse">
<stop stop-color="white" stop-opacity="0"/>
<stop offset="1" stop-color="white"/>
</linearGradient>
<linearGradient id="paint21_linear_367_116148" x1="102.71" y1="12.5238" x2="288.97" y2="198.818" gradientUnits="userSpaceOnUse">
<stop stop-color="white" stop-opacity="0"/>
<stop offset="1" stop-color="white"/>
</linearGradient>
<linearGradient id="paint22_linear_367_116148" x1="107.623" y1="17.44" x2="284.05" y2="193.906" gradientUnits="userSpaceOnUse">
<stop stop-color="white" stop-opacity="0"/>
<stop offset="1" stop-color="white"/>
</linearGradient>
<linearGradient id="paint23_linear_367_116148" x1="112.536" y1="22.3563" x2="279.13" y2="188.994" gradientUnits="userSpaceOnUse">
<stop stop-color="white" stop-opacity="0"/>
<stop offset="1" stop-color="white"/>
</linearGradient>
<linearGradient id="paint24_linear_367_116148" x1="117.45" y1="27.2727" x2="274.211" y2="184.083" gradientUnits="userSpaceOnUse">
<stop stop-color="white" stop-opacity="0"/>
<stop offset="1" stop-color="white"/>
</linearGradient>
<linearGradient id="paint25_linear_367_116148" x1="122.365" y1="32.1968" x2="269.384" y2="179.204" gradientUnits="userSpaceOnUse">
<stop stop-color="white" stop-opacity="0"/>
<stop offset="1" stop-color="white"/>
</linearGradient>
<linearGradient id="paint26_linear_367_116148" x1="127.264" y1="37.0598" x2="264.45" y2="174.239" gradientUnits="userSpaceOnUse">
<stop stop-color="white" stop-opacity="0"/>
<stop offset="1" stop-color="white"/>
</linearGradient>
<linearGradient id="paint27_linear_367_116148" x1="132.177" y1="41.9762" x2="259.53" y2="169.327" gradientUnits="userSpaceOnUse">
<stop stop-color="white" stop-opacity="0"/>
<stop offset="1" stop-color="white"/>
</linearGradient>
<linearGradient id="paint28_linear_367_116148" x1="137.064" y1="46.9006" x2="254.57" y2="164.477" gradientUnits="userSpaceOnUse">
<stop stop-color="white" stop-opacity="0"/>
<stop offset="1" stop-color="white"/>
</linearGradient>
<linearGradient id="paint29_linear_367_116148" x1="141.978" y1="51.817" x2="249.65" y2="159.565" gradientUnits="userSpaceOnUse">
<stop stop-color="white" stop-opacity="0"/>
<stop offset="1" stop-color="white"/>
</linearGradient>
<linearGradient id="paint30_linear_367_116148" x1="146.879" y1="56.6878" x2="244.81" y2="154.633" gradientUnits="userSpaceOnUse">
<stop stop-color="white" stop-opacity="0"/>
<stop offset="1" stop-color="white"/>
</linearGradient>
<linearGradient id="paint31_linear_367_116148" x1="151.832" y1="61.5935" x2="239.936" y2="149.684" gradientUnits="userSpaceOnUse">
<stop stop-color="white" stop-opacity="0"/>
<stop offset="1" stop-color="white"/>
</linearGradient>
<linearGradient id="paint32_linear_367_116148" x1="156.705" y1="66.5205" x2="234.97" y2="144.81" gradientUnits="userSpaceOnUse">
<stop stop-color="white" stop-opacity="0"/>
<stop offset="1" stop-color="white"/>
</linearGradient>
<linearGradient id="paint33_linear_367_116148" x1="161.619" y1="71.4368" x2="230.05" y2="139.898" gradientUnits="userSpaceOnUse">
<stop stop-color="white" stop-opacity="0"/>
<stop offset="1" stop-color="white"/>
</linearGradient>
<linearGradient id="paint34_linear_367_116148" x1="166.534" y1="76.3603" x2="225.224" y2="135.018" gradientUnits="userSpaceOnUse">
<stop stop-color="white" stop-opacity="0"/>
<stop offset="1" stop-color="white"/>
</linearGradient>
<linearGradient id="paint35_linear_367_116148" x1="171.433" y1="81.224" x2="220.29" y2="130.054" gradientUnits="userSpaceOnUse">
<stop stop-color="white" stop-opacity="0"/>
<stop offset="1" stop-color="white"/>
</linearGradient>
<linearGradient id="paint36_linear_367_116148" x1="176.347" y1="86.141" x2="215.37" y2="125.143" gradientUnits="userSpaceOnUse">
<stop stop-color="white" stop-opacity="0"/>
<stop offset="1" stop-color="white"/>
</linearGradient>
</defs>
</svg>
