<svg width="20" height="20" viewBox="0 0 20 20" fill="none" xmlns="http://www.w3.org/2000/svg">
<path fill-rule="evenodd" clip-rule="evenodd" d="M2.56066 0.43934C1.97487 -0.146447 1.02513 -0.146447 0.43934 0.43934C-0.146447 1.02513 -0.146447 1.97487 0.43934 2.56066L7.64546 9.76678L0.43934 16.9729C-0.146447 17.5587 -0.146447 18.5084 0.43934 19.0942C1.02513 19.68 1.97487 19.68 2.56066 19.0942L9.76678 11.8881L16.9725 19.0938C17.5582 19.6796 18.508 19.6796 19.0938 19.0938C19.6796 18.508 19.6796 17.5582 19.0938 16.9725L11.8881 9.76678L19.0938 2.5611C19.6796 1.97531 19.6796 1.02557 19.0938 0.439778C18.508 -0.146006 17.5582 -0.146006 16.9725 0.439779L9.76678 7.64546L2.56066 0.43934Z" fill="white"/>
</svg>
