<svg width="343" height="210" fill="none" xmlns="http://www.w3.org/2000/svg"><path d="M124.084-162.167c71.605-19.187 146.392-9.377 210.583 27.684C398.843-97.476 444.771-37.68 463.944 33.872c19.172 71.553 9.295 146.301-27.78 210.439-37.074 64.138-96.923 110.08-168.528 129.266-71.605 19.187-146.368 9.257-210.597-27.736-64.177-37.008-110.105-96.803-129.277-168.356-19.172-71.552-9.296-146.3 27.78-210.439C-7.332-97.105 52.477-142.98 124.083-162.166Zm142.971 533.578c71.024-19.031 130.415-64.567 167.219-128.236s46.558-137.818 27.542-208.79c-19.017-70.97-64.592-130.294-128.247-167.045-63.707-36.737-137.909-46.477-208.933-27.446C53.612-141.075-5.779-95.539-42.583-31.87S-89.14 105.948-70.124 176.919C-51.108 247.89-5.533 307.214 58.122 343.965c63.708 36.737 137.91 46.477 208.933 27.446Z" fill="url(#a)"/><path d="M125.882-155.456c69.808-18.705 142.72-9.129 205.289 26.95 62.568 36.08 107.356 94.368 126.047 164.124 18.691 69.756 9.101 142.615-27.098 205.159-36.132 62.582-94.488 107.331-164.297 126.036-69.808 18.705-142.72 9.13-205.288-26.95C-2.034 303.784-46.822 245.495-65.513 175.74c-18.69-69.756-9.1-142.615 27.099-205.159C-2.282-92.002 56.073-136.75 125.882-155.456Zm139.389 520.208c69.28-18.563 127.164-62.959 162.987-125.006 35.875-62.061 45.395-134.335 26.846-203.562-18.549-69.227-62.931-127.058-125.031-162.866-62.032-35.77-134.359-45.276-203.639-26.713C57.154-134.831-.73-90.435-36.552-28.389-72.428 33.672-81.948 105.946-63.4 175.173c18.55 69.228 62.931 127.059 125.03 162.867 62.1 35.808 134.413 45.262 203.64 26.712Z" fill="url(#b)"/><path d="M127.666-148.797c68.012-18.224 139.049-8.882 200.009 26.269 60.961 35.15 104.57 92 122.779 159.958 18.21 67.959 8.854 138.943-26.35 199.918-35.218 60.921-92.067 104.53-160.078 122.754-68.012 18.224-139.049 8.882-200.01-26.269-60.96-35.151-104.569-92-122.778-159.959-18.21-67.959-8.853-138.942 26.35-199.917C2.806-86.965 59.655-130.574 127.666-148.797Zm135.807 506.838c67.484-18.082 123.861-61.338 158.808-121.791 34.947-60.452 44.233-130.851 26.165-198.282-18.068-67.43-61.31-123.754-121.801-158.634-60.491-34.88-130.943-44.153-198.426-26.07C60.735-128.654 4.359-85.398-30.589-24.946c-34.947 60.453-44.233 130.852-26.165 198.282 18.068 67.431 61.31 123.755 121.801 158.635 60.491 34.88 130.996 44.138 198.426 26.07Z" fill="url(#c)"/><path d="M129.464-142.087c66.215-17.742 135.43-8.648 194.782 25.575 59.366 34.275 101.821 89.564 119.549 155.726 17.728 66.162 8.62 135.324-25.669 194.637-34.276 59.367-89.632 101.783-155.899 119.539-66.268 17.757-135.43 8.648-194.782-25.574C8.092 293.594-34.376 238.252-52.105 172.09c-17.727-66.162-8.62-135.324 25.67-194.638C7.907-81.876 63.249-124.344 129.464-142.087Zm132.21 493.416c65.687-17.601 120.557-59.716 154.575-118.561 34.019-58.844 43.072-127.368 25.485-193.002-17.587-65.634-59.688-120.45-118.571-154.402-58.884-33.952-127.46-42.99-193.147-25.39C64.33-122.425 9.46-80.309-24.559-21.464-58.525 37.365-67.577 105.89-49.99 171.522-32.404 237.157 9.697 291.974 68.528 325.94c58.883 33.951 127.513 42.976 193.146 25.389Z" fill="url(#d)"/><path d="M131.263-135.375c64.418-17.261 131.744-8.454 189.502 24.893 57.758 33.347 99.073 87.129 116.319 151.494 17.247 64.366 8.373 131.652-24.988 189.358-33.347 57.758-87.249 99.048-151.667 116.309-64.418 17.261-131.69 8.439-189.502-24.894-57.758-33.346-99.073-87.128-116.32-151.494-17.246-64.365-8.371-131.652 24.99-189.357 33.399-57.773 87.248-99.048 151.666-116.309Zm128.614 479.993c63.89-17.12 117.267-58.042 150.357-115.279 33.09-57.236 41.895-123.938 24.79-187.775-17.106-63.837-58.067-117.147-115.356-150.223-57.276-33.023-123.963-41.775-187.853-24.655C67.925-116.195 14.549-75.272-18.542-18.036c-33.09 57.237-41.894 123.938-24.79 187.775 17.106 63.837 58.081 117.2 115.357 150.223 57.275 33.023 123.962 41.775 187.852 24.656Z" fill="url(#e)"/><path d="M133.061-128.664c62.622-16.779 128.072-8.206 184.222 24.213 56.15 32.418 96.325 84.693 113.104 147.315 16.78 62.621 8.125 127.98-24.293 184.13-32.419 56.15-84.813 96.3-147.435 113.079-62.622 16.78-128.072 8.206-184.222-24.212-56.15-32.418-96.324-84.693-113.104-147.315-16.78-62.621-8.125-127.98 24.294-184.13 32.418-56.15 84.813-96.3 147.434-113.08Zm125.018 466.571c62.093-16.638 114.015-56.435 146.124-112.049 32.162-55.629 40.68-120.441 24.056-182.481-16.623-62.04-56.459-113.896-112.073-146.005-55.614-32.109-120.532-40.598-182.572-23.975-62.04 16.624-114.017 56.435-146.125 112.05-32.162 55.627-40.68 120.44-24.056 182.48 16.623 62.04 56.406 113.91 112.073 146.005 55.667 32.095 120.479 40.612 182.573 23.975Z" fill="url(#f)"/><path d="M134.846-122.005c60.877-16.312 124.399-7.958 178.994 23.517 54.543 31.49 93.591 82.31 109.875 143.083 16.284 60.772 7.93 124.294-23.613 178.85-31.49 54.542-82.377 93.552-143.255 109.864-60.878 16.312-124.4 7.959-178.942-23.531S-15.671 227.52-31.969 166.695C-48.267 105.87-39.847 42.387-8.357-12.155c31.504-54.49 82.378-93.552 143.203-109.85Zm121.449 453.253c60.296-16.156 110.712-54.813 141.945-108.833 31.219-54.073 39.503-117.01 23.361-177.254-16.142-60.243-54.785-110.606-108.844-141.773-54.059-31.166-117.049-39.436-177.345-23.279C75.116-103.735 24.7-65.078-6.533-11.058-37.767 42.962-46.051 105.9-29.908 166.143c16.142 60.243 54.837 110.592 108.896 141.759 54.02 31.233 117.01 39.503 177.307 23.346Z" fill="url(#g)"/><path d="M136.643-115.294C258.557-147.961 384.311-75.401 416.95 46.407c32.638 121.808-39.989 247.524-161.902 280.191C133.134 359.265 7.379 286.705-25.259 164.897-57.897 43.089 14.729-82.627 136.643-115.294Zm117.852 439.831C375.299 292.167 447.23 167.658 414.889 46.96 382.548-73.74 257.999-145.603 137.195-113.234 16.391-80.863-55.539 43.647-23.198 164.344 9.143 285.043 133.744 356.892 254.495 324.537Z" fill="url(#h)"/><path d="M138.442-108.582c118.214-31.676 240.149 38.678 271.797 156.787 31.647 118.11-38.775 240.006-156.989 271.681C135.035 351.562 13.1 281.207-18.547 163.098-50.195 44.989 20.227-76.907 138.442-108.582Zm114.255 426.407c117.105-31.378 186.831-152.068 155.481-269.067-31.35-117-152.132-186.644-269.184-155.28C21.942-75.157-47.836 45.547-16.486 162.546c31.35 116.999 152.131 186.643 269.183 155.279Z" fill="url(#i)"/><path d="M140.24-101.871c114.516-30.685 232.684 37.45 263.34 151.86 30.656 114.41-37.56 232.487-152.128 263.186-114.516 30.684-232.685-37.451-263.34-151.861-30.657-114.41 37.613-232.5 152.128-263.185Zm110.659 412.985c113.406-30.387 180.979-147.272 150.62-260.572-30.358-113.3-147.321-180.739-260.674-150.366C27.439-69.437-40.081 47.434-9.722 160.734c30.359 113.3 147.268 180.753 260.621 150.38Z" fill="url(#j)"/><path d="M142.039-95.16c110.816-29.693 225.166 36.237 254.845 147.001 29.679 110.764-36.347 224.969-147.216 254.676C138.799 336.224 24.502 270.28-5.177 159.516-34.856 48.753 31.223-65.466 142.04-95.159Zm107.062 399.563c109.707-29.396 175.022-142.447 145.655-252.048C365.388-57.246 252.245-122.48 142.591-93.1 32.937-63.717-32.431 49.35-3.063 158.95 26.304 268.551 139.448 333.785 249.1 304.403Z" fill="url(#k)"/><path d="M143.822-88.501C250.94-117.204 361.47-53.478 390.157 53.585c28.688 107.064-35.118 217.503-142.288 246.219C140.752 328.507 30.222 264.782 1.534 157.717-27.154 50.653 36.705-59.8 143.822-88.502Zm103.495 386.245c106.007-28.405 169.17-137.651 140.794-243.553C359.734-51.711 250.41-114.74 144.403-86.335S-24.767 51.316 3.609 157.218C31.985 263.12 141.362 326.134 247.317 297.744Z" fill="url(#l)"/><path d="M145.621-81.79c103.418-27.711 210.128 33.81 237.825 137.174 27.697 103.365-33.905 209.985-137.376 237.71-103.418 27.71-210.128-33.81-237.825-137.175C-19.452 52.554 42.203-54.08 145.621-81.791Zm99.897 372.823C347.827 263.619 408.77 158.139 381.385 55.936 354-46.266 248.481-107.143 146.173-79.728 43.864-52.316-17.079 53.164 10.306 155.367c27.385 102.202 132.957 163.065 235.212 135.666Z" fill="url(#m)"/><path d="M147.419-75.079c99.719-26.719 202.611 32.596 229.316 132.262 26.705 99.666-32.744 202.48-132.462 229.2-99.719 26.719-202.61-32.596-229.316-132.262C-11.75 54.455 47.7-48.359 147.419-75.079Zm96.301 359.401c98.609-26.423 157.348-128.083 130.954-226.587C348.28-40.768 246.581-99.44 147.971-73.017 49.362-46.596-9.376 55.065 17.018 153.569 43.412 252.072 145.164 310.73 243.72 284.322Z" fill="url(#n)"/><path d="M149.218-68.367C245.238-94.096 344.31-36.986 370.024 58.98s-31.463 195-127.535 220.743c-96.073 25.743-195.092-31.382-220.806-127.348C-4.032 56.409 53.198-42.639 149.218-68.367Zm92.704 345.977c94.91-25.431 151.444-123.272 126.041-218.077C342.56-35.27 244.68-91.737 149.77-66.307 54.86-40.874-1.673 56.967 23.73 151.772c25.402 94.804 123.335 151.256 218.192 125.839Z" fill="url(#o)"/><path d="M151.016-61.656c92.373-24.75 187.587 30.221 212.31 122.489 24.723 92.267-30.263 187.429-122.636 212.18-92.374 24.752-187.588-30.22-212.31-122.488C3.655 58.257 58.694-36.918 151.015-61.655ZM240.123 270.9c91.211-24.44 145.54-118.462 121.128-209.567C336.84-29.773 242.779-84.035 151.568-59.595 60.357-35.155 6.028 58.868 30.44 149.973c24.412 91.105 118.525 145.352 209.683 120.926Z" fill="url(#p)"/><path d="M152.8-54.998c88.674-23.76 180.069 29.007 203.801 117.576 23.731 88.568-29.088 179.977-117.71 203.723-88.621 23.746-180.069-29.006-203.8-117.575C11.357 60.157 64.177-31.251 152.8-54.998Zm85.539 319.238c87.512-23.448 139.635-113.651 116.201-201.11C331.105-24.33 240.878-76.332 153.366-52.884 65.854-29.435 13.731 60.768 37.166 148.227 60.6 235.685 150.828 287.689 238.339 264.24Z" fill="url(#q)"/><path d="M154.598-48.286c84.975-22.77 172.551 27.793 195.292 112.662 22.74 84.869-27.874 172.459-112.797 195.214-84.975 22.769-172.55-27.793-195.29-112.662C19.06 62.058 69.675-25.532 154.597-48.286Zm81.943 305.815c83.813-22.458 133.731-108.841 111.288-192.6C325.385-18.832 238.963-68.684 155.15-46.226 71.338-23.768 21.42 62.615 43.863 146.376c22.443 83.759 108.866 133.61 192.678 111.153Z" fill="url(#r)"/><path d="M156.397-41.575C237.672-63.353 321.482-15.01 343.231 66.16c21.75 81.17-26.66 164.941-107.936 186.718-81.276 21.778-165.085-26.564-186.834-107.734C26.71 63.974 75.174-19.811 156.397-41.575Zm78.346 292.393c80.113-21.467 127.826-104.031 106.374-184.092-21.452-80.06-104.055-127.706-184.168-106.24C76.835-18.048 29.122 64.516 50.574 144.577c21.453 80.061 104.056 127.707 184.169 106.241Z" fill="url(#s)"/><path d="M158.194-34.863C235.771-55.65 315.761-9.513 336.519 67.959c20.758 77.471-25.432 157.475-103.009 178.261-77.576 20.787-157.566-25.351-178.325-102.822C34.427 65.928 80.67-14.091 158.195-34.863Zm74.75 278.97c76.414-20.476 121.922-99.221 101.461-175.582C313.944-7.836 235.161-53.278 158.746-32.802 82.332-12.327 36.824 66.418 57.286 142.779c20.46 76.361 99.244 121.803 175.658 101.328Z" fill="url(#t)"/><path d="M159.993-28.152c73.878-19.795 150.048 24.137 169.815 97.909 19.767 73.772-24.218 149.957-98.096 169.752-73.877 19.795-150.048-24.137-169.829-97.962C42.102 67.722 86.168-8.371 159.993-28.152Zm71.167 265.6c72.715-19.484 116.004-94.463 96.549-167.072-19.47-72.662-94.435-115.898-167.15-96.414C87.844-6.554 44.555 68.424 64.011 141.034c19.456 72.609 94.434 115.898 167.149 96.414Z" fill="url(#u)"/><path d="M161.777-21.493c70.179-18.804 142.53 22.923 161.32 93.049 18.79 70.125-23.004 142.438-93.182 161.242-70.179 18.804-142.53-22.923-161.32-93.049C49.872 69.662 91.652-2.703 161.777-21.493Zm67.585 252.23c69.016-18.493 110.153-89.666 91.674-158.63C302.558 3.146 231.36-37.871 162.344-19.378 93.328-.887 52.23 70.22 70.709 139.183c18.478 68.963 89.637 110.047 158.653 91.554Z" fill="url(#v)"/><path d="M163.576-14.782c66.479-17.813 135.011 21.71 152.81 88.136 17.799 66.426-21.791 134.919-88.27 152.732-66.479 17.813-135.011-21.709-152.81-88.135C57.507 71.524 97.149 3.017 163.576-14.782Zm63.988 238.807c65.317-17.501 104.248-84.855 86.761-150.12C296.837 8.643 229.444-30.222 164.128-12.72 98.811 4.78 59.88 72.135 77.367 137.399c17.54 65.249 84.88 104.128 150.197 86.626Z" fill="url(#w)"/><path d="M165.374-8.071c62.78-16.822 127.492 20.495 144.3 83.223 16.808 62.727-20.576 127.401-83.357 144.223-62.78 16.822-127.492-20.496-144.3-83.223C65.209 73.425 102.646 8.737 165.374-8.071Zm60.391 225.385c61.618-16.511 98.344-80.045 81.848-141.61-16.496-61.565-80.07-98.224-141.687-81.714C104.308 10.5 67.582 74.035 84.078 135.6c16.496 61.565 80.07 98.224 141.687 81.714Z" fill="url(#x)"/><path d="M167.172-1.36c59.081-15.83 119.975 19.282 135.791 78.31 15.817 59.028-19.363 119.883-78.443 135.713-59.081 15.831-119.989-19.334-135.791-78.309C72.926 75.379 108.144 14.457 167.172-1.36Zm56.795 211.962c57.919-15.519 92.44-75.234 76.935-133.1-15.505-57.865-75.259-92.32-133.178-76.8-57.918 15.519-92.44 75.234-76.934 133.1 15.505 57.865 75.259 92.32 133.177 76.8Z" fill="url(#y)"/><path d="M168.97 5.352c55.382-14.84 112.47 18.12 127.296 73.45 14.825 55.328-18.135 112.417-73.517 127.256-55.381 14.84-112.47-18.12-127.295-73.449C80.629 77.279 113.641 20.177 168.97 5.352Zm53.213 198.592c54.219-14.528 86.536-70.424 72.022-124.59-14.514-54.167-70.449-86.416-124.668-71.888-54.219 14.528-86.536 70.424-72.022 124.591 14.514 54.166 70.449 86.415 124.668 71.887Z" fill="url(#z)"/><path d="M170.754 12.01C222.437-1.838 275.706 28.917 289.54 80.546c13.834 51.63-16.973 104.913-68.603 118.747-51.63 13.835-104.952-16.906-118.786-68.536-13.834-51.63 16.974-104.913 68.603-118.747Zm49.631 185.222c50.52-13.536 80.631-65.613 67.094-116.133C273.957 30.63 221.827.534 171.307 14.07c-50.52 13.537-80.632 65.614-67.095 116.134 13.537 50.52 65.653 80.564 116.173 67.027Z" fill="url(#A)"/><path d="M172.552 18.721c47.984-12.857 97.433 15.693 110.276 63.624 12.843 47.93-15.759 97.394-63.69 110.237-47.983 12.857-97.433-15.693-110.276-63.623-12.843-47.93 15.76-97.395 63.69-110.238Zm46.034 171.8c46.821-12.546 74.727-60.803 62.181-107.624-12.545-46.821-60.842-74.66-107.662-62.115-46.821 12.546-74.728 60.804-62.182 107.624 12.546 46.821 60.842 74.661 107.663 62.115Z" fill="url(#B)"/><path d="M174.351 25.433c44.284-11.866 89.967 14.465 101.819 58.696 11.852 44.232-14.546 89.876-58.83 101.742s-89.967-14.464-101.819-58.696c-11.852-44.231 14.598-89.89 58.83-101.742Zm42.437 158.377c43.122-11.554 68.823-55.993 57.268-99.114-11.554-43.122-56.031-68.756-99.153-57.202-43.122 11.555-68.823 55.993-57.268 99.115 11.554 43.122 56.031 68.756 99.153 57.201Z" fill="url(#C)"/><path d="M176.149 32.145c40.586-10.875 82.45 13.25 93.31 53.783 10.861 40.532-13.332 82.357-53.917 93.232s-82.449-13.251-93.31-53.783c-10.86-40.532 13.332-82.358 53.917-93.232Zm38.841 144.954c39.422-10.563 62.904-51.235 52.355-90.605-10.563-39.422-51.221-62.852-90.643-52.288-39.423 10.563-62.905 51.235-52.356 90.605 10.563 39.422 51.221 62.851 90.644 52.288Z" fill="url(#D)"/><path d="M177.934 38.803c36.886-9.883 74.93 12.037 84.814 48.923 9.884 36.886-12.104 74.892-48.99 84.776-36.886 9.883-74.93-12.037-84.814-48.923-9.884-36.886 12.104-74.892 48.99-84.776Zm35.272 131.638c35.723-9.572 57-46.425 47.442-82.096-9.572-35.723-46.41-56.947-82.134-47.375-35.723 9.572-57 46.425-47.442 82.095 9.558 35.671 46.411 56.948 82.134 47.376Z" fill="url(#E)"/><path d="M179.732 45.514c33.186-8.892 67.412 10.823 76.304 44.01 8.893 33.187-10.89 67.374-44.077 76.266-33.186 8.892-67.359-10.837-76.251-44.024-8.893-33.187 10.837-67.36 44.024-76.252Zm31.675 118.215c32.024-8.581 51.149-41.629 42.568-73.653-8.581-32.024-41.614-51.096-73.691-42.5-32.024 8.58-51.149 41.628-42.568 73.652 8.634 32.01 41.667 51.082 73.691 42.501Z" fill="url(#F)"/><path d="M181.53 52.225c29.487-7.9 59.908 9.663 67.795 39.097 7.901 29.488-9.677 59.855-39.164 67.757-29.488 7.901-59.908-9.662-67.795-39.097-7.887-29.435 9.676-59.855 39.164-67.757Zm28.079 104.793c28.325-7.59 45.244-36.818 37.655-65.144-7.59-28.324-36.804-45.191-65.182-37.587-28.325 7.59-45.245 36.818-37.655 65.143 7.59 28.325 36.857 45.177 65.182 37.588Z" fill="url(#G)"/><path d="M183.329 58.937c25.788-6.91 52.389 8.448 59.285 34.183 6.896 25.736-8.462 52.337-34.251 59.247-25.788 6.91-52.389-8.448-59.285-34.184-6.896-25.735 8.462-52.336 34.251-59.246Zm24.482 91.369c24.626-6.599 39.34-32.008 32.742-56.634-6.599-24.625-31.994-39.287-56.672-32.674-24.626 6.598-39.341 32.007-32.742 56.633 6.651 24.612 32.046 39.273 56.672 32.675Z" fill="url(#H)"/><path d="M185.127 65.648c22.089-5.919 44.871 7.234 50.79 29.323 5.918 22.09-7.235 44.871-29.324 50.79-22.089 5.919-44.871-7.234-50.79-29.323-5.919-22.09 7.234-44.871 29.324-50.79Zm20.885 77.947c20.927-5.608 33.437-27.197 27.829-48.124-5.607-20.927-27.183-33.384-48.162-27.762-20.927 5.607-33.436 27.197-27.829 48.124 5.66 20.912 27.236 33.369 48.162 27.762Z" fill="url(#I)"/><path d="M186.911 72.306c18.39-4.927 37.352 6.02 42.28 24.41 4.928 18.391-6.02 37.353-24.411 42.281-18.39 4.928-37.352-6.02-42.28-24.41-4.927-18.39 6.021-37.353 24.411-42.28Zm17.317 64.63c17.228-4.616 27.532-22.386 22.916-39.614-4.616-17.228-22.425-27.465-39.653-22.849-17.227 4.616-27.532 22.387-22.916 39.614 4.616 17.228 22.426 27.465 39.653 22.849Z" fill="url(#J)"/><path d="M188.709 79.018c14.691-3.936 29.834 4.807 33.771 19.498 3.936 14.691-4.807 29.834-19.498 33.77-14.69 3.937-29.834-4.806-33.77-19.497-3.936-14.691 4.806-29.834 19.497-33.77Zm13.721 51.207c13.529-3.625 21.628-17.576 17.989-31.157-3.625-13.528-17.629-21.614-31.157-17.989-13.529 3.625-21.628 17.576-17.989 31.158 3.625 13.528 17.629 21.613 31.157 17.988Z" fill="url(#K)"/><defs><linearGradient id="s" x1="87.982" y1="-2.181" x2="303.65" y2="213.572" gradientUnits="userSpaceOnUse"><stop stop-color="#fff" stop-opacity="0"/><stop offset="1" stop-color="#fff"/></linearGradient><linearGradient id="a" x1="-.355" y1="-90.501" x2="392.064" y2="301.974" gradientUnits="userSpaceOnUse"><stop stop-color="#fff" stop-opacity="0"/><stop offset="1" stop-color="#fff"/></linearGradient><linearGradient id="c" x1="9.484" y1="-80.728" x2="382.252" y2="292.039" gradientUnits="userSpaceOnUse"><stop stop-color="#fff" stop-opacity="0"/><stop offset="1" stop-color="#fff"/></linearGradient><linearGradient id="d" x1="14.37" y1="-75.805" x2="377.29" y2="287.187" gradientUnits="userSpaceOnUse"><stop stop-color="#fff" stop-opacity="0"/><stop offset="1" stop-color="#fff"/></linearGradient><linearGradient id="e" x1="19.285" y1="-70.889" x2="372.371" y2="282.275" gradientUnits="userSpaceOnUse"><stop stop-color="#fff" stop-opacity="0"/><stop offset="1" stop-color="#fff"/></linearGradient><linearGradient id="f" x1="24.2" y1="-65.965" x2="367.545" y2="277.396" gradientUnits="userSpaceOnUse"><stop stop-color="#fff" stop-opacity="0"/><stop offset="1" stop-color="#fff"/></linearGradient><linearGradient id="g" x1="29.113" y1="-61.105" x2="362.617" y2="272.455" gradientUnits="userSpaceOnUse"><stop stop-color="#fff" stop-opacity="0"/><stop offset="1" stop-color="#fff"/></linearGradient><linearGradient id="h" x1="34.012" y1="-56.185" x2="357.69" y2="267.52" gradientUnits="userSpaceOnUse"><stop stop-color="#fff" stop-opacity="0"/><stop offset="1" stop-color="#fff"/></linearGradient><linearGradient id="i" x1="38.925" y1="-51.268" x2="352.771" y2="262.609" gradientUnits="userSpaceOnUse"><stop stop-color="#fff" stop-opacity="0"/><stop offset="1" stop-color="#fff"/></linearGradient><linearGradient id="j" x1="43.813" y1="-46.345" x2="347.811" y2="257.757" gradientUnits="userSpaceOnUse"><stop stop-color="#fff" stop-opacity="0"/><stop offset="1" stop-color="#fff"/></linearGradient><linearGradient id="k" x1="48.727" y1="-41.424" x2="342.938" y2="252.862" gradientUnits="userSpaceOnUse"><stop stop-color="#fff" stop-opacity="0"/><stop offset="1" stop-color="#fff"/></linearGradient><linearGradient id="l" x1="53.627" y1="-36.558" x2="338.05" y2="247.913" gradientUnits="userSpaceOnUse"><stop stop-color="#fff" stop-opacity="0"/><stop offset="1" stop-color="#fff"/></linearGradient><linearGradient id="m" x1="58.54" y1="-31.641" x2="333.13" y2="243.002" gradientUnits="userSpaceOnUse"><stop stop-color="#fff" stop-opacity="0"/><stop offset="1" stop-color="#fff"/></linearGradient><linearGradient id="n" x1="63.454" y1="-26.724" x2="328.211" y2="238.091" gradientUnits="userSpaceOnUse"><stop stop-color="#fff" stop-opacity="0"/><stop offset="1" stop-color="#fff"/></linearGradient><linearGradient id="o" x1="68.368" y1="-21.804" x2="323.338" y2="233.195" gradientUnits="userSpaceOnUse"><stop stop-color="#fff" stop-opacity="0"/><stop offset="1" stop-color="#fff"/></linearGradient><linearGradient id="p" x1="73.281" y1="-16.887" x2="318.418" y2="228.284" gradientUnits="userSpaceOnUse"><stop stop-color="#fff" stop-opacity="0"/><stop offset="1" stop-color="#fff"/></linearGradient><linearGradient id="q" x1="78.181" y1="-12.021" x2="313.53" y2="223.335" gradientUnits="userSpaceOnUse"><stop stop-color="#fff" stop-opacity="0"/><stop offset="1" stop-color="#fff"/></linearGradient><linearGradient id="r" x1="83.095" y1="-7.104" x2="308.611" y2="218.424" gradientUnits="userSpaceOnUse"><stop stop-color="#fff" stop-opacity="0"/><stop offset="1" stop-color="#fff"/></linearGradient><linearGradient id="b" x1="4.557" y1="-85.588" x2="387.098" y2="297.047" gradientUnits="userSpaceOnUse"><stop stop-color="#fff" stop-opacity="0"/><stop offset="1" stop-color="#fff"/></linearGradient><linearGradient id="t" x1="92.896" y1="2.74" x2="298.777" y2="208.677" gradientUnits="userSpaceOnUse"><stop stop-color="#fff" stop-opacity="0"/><stop offset="1" stop-color="#fff"/></linearGradient><linearGradient id="u" x1="97.809" y1="7.656" x2="293.857" y2="203.766" gradientUnits="userSpaceOnUse"><stop stop-color="#fff" stop-opacity="0"/><stop offset="1" stop-color="#fff"/></linearGradient><linearGradient id="v" x1="102.71" y1="12.524" x2="288.97" y2="198.818" gradientUnits="userSpaceOnUse"><stop stop-color="#fff" stop-opacity="0"/><stop offset="1" stop-color="#fff"/></linearGradient><linearGradient id="w" x1="107.623" y1="17.44" x2="284.05" y2="193.906" gradientUnits="userSpaceOnUse"><stop stop-color="#fff" stop-opacity="0"/><stop offset="1" stop-color="#fff"/></linearGradient><linearGradient id="x" x1="112.536" y1="22.356" x2="279.13" y2="188.994" gradientUnits="userSpaceOnUse"><stop stop-color="#fff" stop-opacity="0"/><stop offset="1" stop-color="#fff"/></linearGradient><linearGradient id="y" x1="117.45" y1="27.273" x2="274.211" y2="184.083" gradientUnits="userSpaceOnUse"><stop stop-color="#fff" stop-opacity="0"/><stop offset="1" stop-color="#fff"/></linearGradient><linearGradient id="z" x1="122.365" y1="32.197" x2="269.384" y2="179.204" gradientUnits="userSpaceOnUse"><stop stop-color="#fff" stop-opacity="0"/><stop offset="1" stop-color="#fff"/></linearGradient><linearGradient id="A" x1="127.264" y1="37.06" x2="264.45" y2="174.239" gradientUnits="userSpaceOnUse"><stop stop-color="#fff" stop-opacity="0"/><stop offset="1" stop-color="#fff"/></linearGradient><linearGradient id="B" x1="132.177" y1="41.976" x2="259.53" y2="169.327" gradientUnits="userSpaceOnUse"><stop stop-color="#fff" stop-opacity="0"/><stop offset="1" stop-color="#fff"/></linearGradient><linearGradient id="C" x1="137.064" y1="46.901" x2="254.57" y2="164.477" gradientUnits="userSpaceOnUse"><stop stop-color="#fff" stop-opacity="0"/><stop offset="1" stop-color="#fff"/></linearGradient><linearGradient id="D" x1="141.978" y1="51.817" x2="249.65" y2="159.565" gradientUnits="userSpaceOnUse"><stop stop-color="#fff" stop-opacity="0"/><stop offset="1" stop-color="#fff"/></linearGradient><linearGradient id="E" x1="146.879" y1="56.688" x2="244.81" y2="154.633" gradientUnits="userSpaceOnUse"><stop stop-color="#fff" stop-opacity="0"/><stop offset="1" stop-color="#fff"/></linearGradient><linearGradient id="F" x1="151.832" y1="61.593" x2="239.936" y2="149.684" gradientUnits="userSpaceOnUse"><stop stop-color="#fff" stop-opacity="0"/><stop offset="1" stop-color="#fff"/></linearGradient><linearGradient id="G" x1="156.705" y1="66.52" x2="234.97" y2="144.81" gradientUnits="userSpaceOnUse"><stop stop-color="#fff" stop-opacity="0"/><stop offset="1" stop-color="#fff"/></linearGradient><linearGradient id="H" x1="161.619" y1="71.437" x2="230.05" y2="139.898" gradientUnits="userSpaceOnUse"><stop stop-color="#fff" stop-opacity="0"/><stop offset="1" stop-color="#fff"/></linearGradient><linearGradient id="I" x1="166.534" y1="76.36" x2="225.224" y2="135.018" gradientUnits="userSpaceOnUse"><stop stop-color="#fff" stop-opacity="0"/><stop offset="1" stop-color="#fff"/></linearGradient><linearGradient id="J" x1="171.433" y1="81.224" x2="220.29" y2="130.054" gradientUnits="userSpaceOnUse"><stop stop-color="#fff" stop-opacity="0"/><stop offset="1" stop-color="#fff"/></linearGradient><linearGradient id="K" x1="176.347" y1="86.141" x2="215.37" y2="125.143" gradientUnits="userSpaceOnUse"><stop stop-color="#fff" stop-opacity="0"/><stop offset="1" stop-color="#fff"/></linearGradient></defs></svg>